:SAMPLES-PER-SECOND 30
:FULLY-SPECIFIED
:DEGREES
273
root  73.0012 37.5027 -0.367303 166.58 60.4939 165.142
RightUpLeg  0.895747 -11.6796 -18.1478
RightLeg  46.7109 -7.33674 -8.56971
RightFoot  -18.6082 0.160754 4.53059
RightToes  5.82063e-011 0 -3.6325e-017
Spine  7.33615 12.8364 7.91068
Spine1  17.5772 19.2289 -15.6829
HEad  -72.1355 -11.4752 5.01726
LeftShoulder1  -4.31238 8.81545 -64.1993
LeftArm  -4.24624 23.3328 -26.6371
LeftForeArm  -83.669 3.65403 -7.03846
LeftHand  -0.108964 24.5788 0.145078
RightShoulder  14.2448 -20.7193 -78.6306
RightArm  73.4003 69.8347 172.1
RightForeArm  43.7788 65.5146 23.534
RightHand  0.213536 1.95068 3.22919
LeftUpLeg  -15.6762 -33.5501 -7.0249
LeftLeg  30.7638 -22.7243 -13.6498
LeftFoot  -8.82474 -0.116787 7.71771
LeftToes  -1.20963e-009 8.6283e-011 2.04439e-011
274
root  73.3941 37.6072 0.2943 170.974 55.7145 170.421
RightUpLeg  -0.243628 -10.4134 -16.35
RightLeg  41.5267 -7.69425 -7.5612
RightFoot  -20.8555 0.226226 4.42076
RightToes  5.82063e-011 0 -3.6325e-017
Spine  16.9638 10.1683 14.8197
Spine1  0.699114 19.9362 -38.2637
HEad  -69.91 -2.69536 18.2695
LeftShoulder1  -0.231709 4.35015 -29.104
LeftArm  -18.4436 40.2094 -44.4839
LeftForeArm  -63.3976 0.516289 -0.0510891
LeftHand  -0.12402 21.7827 -0.00657434
RightShoulder  -2.54993 3.32368 -35.394
RightArm  66.4112 70.0205 135.585
RightForeArm  24.7348 39.8102 6.7834
RightHand  0.171506 3.60603 1.94885
LeftUpLeg  -15.2178 -31.4299 -4.87419
LeftLeg  31.0831 -22.2001 -13.513
LeftFoot  -8.92502 -0.0959689 7.09449
LeftToes  -1.20963e-009 8.6283e-011 2.04439e-011
275
root  73.7749 37.729 0.985822 174.713 50.2367 174.625
RightUpLeg  -0.965918 -6.69226 -13.992
RightLeg  33.2718 -6.66926 -4.91229
RightFoot  -21.1457 0.222816 4.24451
RightToes  5.82063e-011 0 -3.6325e-017
Spine  20.1546 7.78471 16.1726
Spine1  -3.1343 18.0064 -46.6847
HEad  -70.581 -0.397853 27.5066
LeftShoulder1  0.667811 0.557405 -14.0302
LeftArm  -25.2414 43.0331 -48.7156
LeftForeArm  -46.1756 -3.29595 2.57184
LeftHand  0.0495589 17.5361 1.33318
RightShoulder  -0.336748 4.61509 -13.6057
RightArm  81.6306 63.9417 132.709
RightForeArm  17.921 29.3529 5.20608
RightHand  0.0579111 4.61915 0.384746
LeftUpLeg  -15.6179 -27.8989 -2.70479
LeftLeg  31.127 -20.0706 -12.3043
LeftFoot  -8.35946 -0.136206 7.15787
LeftToes  -1.20963e-009 8.6283e-011 2.04439e-011
276
root  74.1494 37.8365 1.68975 177.976 43.5177 178.035
RightUpLeg  -0.715973 -1.94992 -11.8041
RightLeg  23.2367 -4.90916 -2.5923
RightFoot  -18.8385 0.286274 6.6111
RightToes  5.82063e-011 0 -3.6325e-017
Spine  20.3653 6.57631 13.8817
Spine1  -0.534786 16.6479 -41.5205
HEad  -75.1559 7.40244 20.7631
LeftShoulder1  0.965944 -1.69534 -11.2745
LeftArm  -22.7677 38.6092 -43.5713
LeftForeArm  -37.2499 -4.80316 2.00314
LeftHand  0.0976693 17.4764 1.74654
RightShoulder  -0.142974 4.9715 -11.6234
RightArm  80.6372 59.8539 128.207
RightForeArm  12.6652 21.0825 5.03021
RightHand  -0.261343 3.96658 -3.54159
LeftUpLeg  -16.7606 -25.6878 -0.166138
LeftLeg  30.9139 -18.7744 -11.4437
LeftFoot  -7.9545 -0.15799 6.95941
LeftToes  -1.20963e-009 8.6283e-011 2.04439e-011
277
root  74.4727 37.8321 2.37584 -179.883 36.1254 179.674
RightUpLeg  -1.38582 -1.64458 -11.4185
RightLeg  19.4311 1.09594 0.298444
RightFoot  -15.6229 0.29075 10.2662
RightToes  5.82063e-011 0 -3.6325e-017
Spine  20.8199 5.18784 12.1485
Spine1  1.9562 15.258 -37.9993
HEad  -82.86 14.8109 13.5266
LeftShoulder1  0.996262 -2.4488 -9.31305
LeftArm  -20.8615 30.3409 -38.4612
LeftForeArm  -32.6006 -5.66095 1.49507
LeftHand  -0.000142833 15.7673 0.944376
RightShoulder  0.0981594 4.93386 -8.36325
RightArm  68.8538 57.7483 122.333
RightForeArm  18.1679 12.6877 9.00757
RightHand  -0.367445 2.93484 -5.30725
LeftUpLeg  -19.0673 -24.3664 1.7948
LeftLeg  31.0907 -18.6714 -11.4656
LeftFoot  -7.44065 -0.172094 6.36206
LeftToes  -1.20963e-009 8.6283e-011 2.04439e-011
278
root  74.7819 37.7983 3.03208 -177.869 29.1092 -179.786
RightUpLeg  -2.98309 -3.43059 -11.0662
RightLeg  20.6009 4.35901 1.59608
RightFoot  -16.3622 0.365002 10.8101
RightToes  5.82063e-011 0 -3.6325e-017
Spine  20.9201 4.43251 10.5926
Spine1  4.88564 14.448 -34.4033
HEad  -89.2758 16.2702 7.07221
LeftShoulder1  1.13815 -3.28126 -9.41
LeftArm  -20.8756 18.7863 -34.1903
LeftForeArm  -31.1307 -5.70612 1.59779
LeftHand  0.0935809 16.0219 1.90559
RightShoulder  0.17365 4.59624 -7.21124
RightArm  52.6478 56.1559 114.493
RightForeArm  26.3818 5.87773 10.3228
RightHand  -0.16306 1.35044 -2.91182
LeftUpLeg  -22.4268 -23.8693 3.58025
LeftLeg  31.1974 -20.2665 -12.4427
LeftFoot  -6.33566 -0.216644 5.83169
LeftToes  -1.20963e-009 8.6283e-011 2.04439e-011
279
root  75.0786 37.9465 3.5393 -176.588 23.4864 -179.628
RightUpLeg  -2.14354 -3.82025 -10.2568
RightLeg  17.9117 4.07507 1.16783
RightFoot  -16.0513 0.283698 9.56858
RightToes  5.82063e-011 0 -3.6325e-017
Spine  21.7482 3.97754 9.61576
Spine1  6.41868 13.6379 -31.3573
HEad  -89.7084 13.2441 3.47915
LeftShoulder1  1.20278 -3.72431 -9.26017
LeftArm  -22.8778 7.60655 -31.7957
LeftForeArm  -27.8516 -7.04613 2.04015
LeftHand  0.0800703 15.2886 1.84727
RightShoulder  0.376964 4.02699 -3.94198
RightArm  44.5302 53.6505 106.403
RightForeArm  30.4493 1.4457 10.1812
RightHand  -0.0169715 -0.811241 -0.505307
LeftUpLeg  -24.0477 -25.2936 5.1984
LeftLeg  28.9541 -22.4656 -12.6002
LeftFoot  -4.93185 -0.23554 4.7359
LeftToes  -1.20963e-009 8.6283e-011 2.04439e-011
